<?xml version="1.0" encoding="UTF-8"?>
<svg xmlns="http://www.w3.org/2000/svg" version="1.1" viewBox="0 0 340 101">
  <defs>
    <style>
      .cls-1 {
        font-size: 9.3px;
      }

      .cls-1, .cls-2, .cls-3 {
        fill: #fff;
      }

      .cls-1, .cls-3 {
        font-family: Montserrat-Medium, Montserrat;
        font-weight: 500;
      }

      .cls-1, .cls-3, .cls-4 {
        isolation: isolate;
      }

      .cls-3 {
        font-size: 14.4px;
      }

      .cls-5 {
        fill: #6e90f6;
      }
    </style>
  </defs>
  <!-- Generator: Adobe Illustrator 28.6.0, SVG Export Plug-In . SVG Version: 1.2.0 Build 709)  -->
  <g>
    <g id="Layer_1">
      <path class="cls-2" d="M110.4,21.7v41.9c0,2-.3,2.3-2.2,2.3h-16.1c-1.6,0-2-.4-2-2V21.7h-21.5c-1.1-.2-1.5-.7-1.1-1.8.4-1.1.8-2.2,1.3-3.2,1.4-3.2,2.9-6.4,4.4-9.5.5-1.1,1.4-1.5,2.5-1.5h48.6c1.4,0,2.5.4,3.2,1.8,1.4,3.1,2.8,6.3,4.2,9.5.4.9.8,1.9,1.2,2.9.4,1.2,0,1.7-1.2,1.9h-21.3Z"/>
      <path class="cls-2" d="M158.3,47.5h26.7c1.6,0,1.9.3,1.9,1.9v15.2c0,1.6-.3,1.9-1.8,1.9h-45.1c-1.5,0-1.9-.4-1.9-2V7c0-1.4.5-1.9,1.9-1.9h16.5c1.6,0,1.9.3,1.9,1.9v40.5h0Z"/>
      <path class="cls-2" d="M70.7,66.1h-9c-1.3,0-2-.5-2.6-1.7-8.6-19-17.2-37.9-25.8-56.9-.7-1.5-.5-1.7,1.2-1.7h17.3c1.3,0,2.1.5,2.7,1.7,8.7,18.9,17.5,37.8,26.2,56.7.7,1.6.5,1.9-1.2,1.9h-8.8Z"/>
      <g>
        <path class="cls-5" d="M197,6.2c3.6-.7,8-1.2,13.2-1.2s13,1.9,16.4,5.2c3,2.8,4.8,6.9,4.8,12.1s-1.6,9.3-4.3,12.3c-3.9,4.6-10.7,7-18.2,7s-5.4,0-7.6-.7v26.5h-4.3V6.2h0ZM201.3,37.1c2.2.6,4.9.9,7.9.9,11,0,17.8-5.4,17.8-15.3s-7.1-14.1-16.9-14.1-7.1.4-8.7.7v27.7h-.1Z"/>
        <path class="cls-5" d="M264.5,67.5l-.6-6.3h-.3c-2.1,3.4-7,7.4-14.1,7.4s-13-6.3-13-12.1c0-10.2,9-16.4,27-16.2v-1.1c0-4.4-.8-13.2-11.3-13.1-3.9,0-7.9,1-11,3.3l-1.4-3.2c3.9-2.7,8.9-3.8,12.9-3.8,12.8,0,15.2,9.6,15.2,17.5v17.2c0,3.5.2,7.1.6,10.5h-4ZM263.5,43.9c-9.7-.3-22.4,1.2-22.4,11.8s4.3,9.2,8.8,9.2c7.4,0,11.5-4.5,13.1-8.8.3-.9.5-1.9.5-2.7v-9.5Z"/>
        <path class="cls-5" d="M279.8,23.3l11.6,28.9c1.2,3.1,2.4,6.6,3.2,9.5h.2c.9-2.8,2-6.2,3.4-9.8l10.8-28.6h4.7l-13.2,32.9c-5.4,13.7-9.1,21.9-14.9,27-3.5,3-6.6,4.3-7.7,4.6l-1.4-3.7c2.2-.8,5.2-2.4,7.7-5,2.2-2.1,5.2-5.8,7.4-11,.4-1,.6-1.5.6-1.9s-.2-1-.6-1.9l-16.5-41h4.7,0Z"/>
      </g>
      <path class="cls-5" d="M5.8,64.2L27.7,18.9s.8-1.2,1.5.7,8.3,17.5,8.3,17.5c0,0,1.7,1.9,0,4.2l-11.2,22.8s-.1,1.9-3.1,1.9l-17.3-.3s-.6-.3,0-1.5h0Z"/>
      <g class="cls-4">
        <text class="cls-3" transform="translate(5.6 89.7)"><tspan x="0" y="0">Ever Forward Processing</tspan></text>
      </g>
      <g class="cls-4">
        <g class="cls-4">
          <text class="cls-1" transform="translate(320.3 22.2)"><tspan x="0" y="0">TM</tspan></text>
        </g>
      </g>
    </g>
  </g>
</svg>