<?xml version="1.0" encoding="UTF-8"?>
<svg xmlns="http://www.w3.org/2000/svg" version="1.1" viewBox="0 0 340 101">
  <defs>
    <style>
      .cls-1 {
        font-family: Montserrat-Medium, Montserrat;
        font-size: 9.3px;
        font-weight: 500;
      }

      .cls-1, .cls-2 {
        fill: #fff;
      }

      .cls-1, .cls-3 {
        isolation: isolate;
      }

      .cls-4 {
        fill: #6e90f6;
      }
    </style>
  </defs>
  <!-- Generator: Adobe Illustrator 28.6.0, SVG Export Plug-In . SVG Version: 1.2.0 Build 709)  -->
  <g>
    <g id="Layer_1">
      <path class="cls-2" d="M110.4,21.7v41.9c0,2-.3,2.3-2.2,2.3h-16.1c-1.6,0-2-.4-2-2V21.7h-21.5c-1.1-.2-1.5-.7-1.1-1.8.4-1.1.8-2.2,1.3-3.2,1.4-3.2,2.9-6.4,4.4-9.5.5-1.1,1.4-1.5,2.5-1.5h48.6c1.4,0,2.5.4,3.2,1.8,1.4,3.1,2.8,6.3,4.2,9.5.4.9.8,1.9,1.2,2.9.4,1.2,0,1.7-1.2,1.9h-21.3Z"/>
      <path class="cls-2" d="M158.3,47.5h26.7c1.6,0,1.9.3,1.9,1.9v15.2c0,1.6-.3,1.9-1.8,1.9h-45.1c-1.5,0-1.9-.4-1.9-2V7c0-1.4.5-1.9,1.9-1.9h16.5c1.6,0,1.9.3,1.9,1.9v40.5h0Z"/>
      <path class="cls-2" d="M70.7,66.1h-9c-1.3,0-2-.5-2.6-1.7-8.6-19-17.2-37.9-25.8-56.9-.7-1.5-.5-1.7,1.2-1.7h17.3c1.3,0,2.1.5,2.7,1.7,8.7,18.9,17.5,37.8,26.2,56.7.7,1.6.5,1.9-1.2,1.9h-8.8Z"/>
      <g>
        <path class="cls-4" d="M197,6.2c3.6-.7,8-1.2,13.2-1.2s13,1.9,16.4,5.2c3,2.8,4.8,6.9,4.8,12.1s-1.6,9.3-4.3,12.3c-3.9,4.6-10.7,7-18.2,7s-5.4,0-7.6-.7v26.5h-4.3V6.2h0ZM201.3,37.1c2.2.6,4.9.9,7.9.9,11,0,17.8-5.4,17.8-15.3s-7.1-14.1-16.9-14.1-7.1.4-8.7.7v27.7h-.1Z"/>
        <path class="cls-4" d="M264.5,67.5l-.6-6.3h-.3c-2.1,3.4-7,7.4-14.1,7.4s-13-6.3-13-12.1c0-10.2,9-16.4,27-16.2v-1.1c0-4.4-.8-13.2-11.3-13.1-3.9,0-7.9,1-11,3.3l-1.4-3.2c3.9-2.7,8.9-3.8,12.9-3.8,12.8,0,15.2,9.6,15.2,17.5v17.2c0,3.5.2,7.1.6,10.5h-4ZM263.5,43.9c-9.7-.3-22.4,1.2-22.4,11.8s4.3,9.2,8.8,9.2c7.4,0,11.5-4.5,13.1-8.8.3-.9.5-1.9.5-2.7v-9.5Z"/>
        <path class="cls-4" d="M279.8,23.3l11.6,28.9c1.2,3.1,2.4,6.6,3.2,9.5h.2c.9-2.8,2-6.2,3.4-9.8l10.8-28.6h4.7l-13.2,32.9c-5.4,13.7-9.1,21.9-14.9,27-3.5,3-6.6,4.3-7.7,4.6l-1.4-3.7c2.2-.8,5.2-2.4,7.7-5,2.2-2.1,5.2-5.8,7.4-11,.4-1,.6-1.5.6-1.9s-.2-1-.6-1.9l-16.5-41h4.7,0Z"/>
      </g>
      <path class="cls-4" d="M5.8,64.2L27.7,18.9s.8-1.2,1.5.7,8.3,17.5,8.3,17.5c0,0,1.7,1.9,0,4.2l-11.2,22.8s-.1,1.9-3.1,1.9l-17.3-.3s-.6-.3,0-1.5h0Z"/>
      <g class="cls-3">
        <path class="cls-2" d="M14.4,88.4v1.3h-7.3v-10.1h7.1v1.3h-5.7v3.1h5.1v1.2h-5.1v3.3h5.9Z"/>
        <path class="cls-2" d="M23.2,82.1l-3.3,7.6h-1.4l-3.3-7.6h1.4l2.6,6.1,2.7-6.1h1.4Z"/>
        <path class="cls-2" d="M31.1,86.3h-6.2c0,.7.4,1.2.9,1.6s1.1.6,1.9.6,1.6-.3,2.2-.9l.8.9c-.3.4-.8.7-1.3.9s-1.1.3-1.7.3-1.5-.2-2.1-.5-1.1-.8-1.4-1.4c-.3-.6-.5-1.3-.5-2s.2-1.4.5-2c.3-.6.8-1.1,1.4-1.4s1.2-.5,2-.5,1.4.2,2,.5c.6.3,1,.8,1.3,1.4.3.6.5,1.3.5,2s0,.2,0,.4ZM25.7,83.8c-.4.4-.7.9-.8,1.6h4.9c0-.6-.3-1.2-.8-1.6s-1-.6-1.7-.6-1.2.2-1.7.6Z"/>
        <path class="cls-2" d="M35.5,82.3c.5-.2,1-.3,1.7-.3v1.3c0,0-.2,0-.3,0-.7,0-1.3.2-1.8.7-.4.4-.6,1.1-.6,1.9v3.8h-1.4v-7.6h1.3v1.3c.2-.4.6-.8,1.1-1Z"/>
        <path class="cls-2" d="M44.5,80.9v3.5h5.1v1.2h-5.1v4.1h-1.4v-10.1h7.1v1.3h-5.7Z"/>
        <path class="cls-2" d="M53,89.3c-.6-.3-1.1-.8-1.4-1.4-.3-.6-.5-1.3-.5-2s.2-1.4.5-2c.3-.6.8-1.1,1.4-1.4.6-.3,1.3-.5,2-.5s1.4.2,2,.5c.6.3,1.1.8,1.4,1.4.3.6.5,1.3.5,2s-.2,1.4-.5,2c-.3.6-.8,1.1-1.4,1.4-.6.3-1.3.5-2,.5s-1.4-.2-2-.5ZM56.3,88.2c.4-.2.7-.5.9-1,.2-.4.3-.9.3-1.4s-.1-1-.3-1.4c-.2-.4-.5-.7-.9-.9s-.8-.3-1.3-.3-.9.1-1.3.3-.7.5-.9.9-.3.9-.3,1.4.1,1,.3,1.4.5.7.9,1,.8.3,1.3.3.9-.1,1.3-.3Z"/>
        <path class="cls-2" d="M63.3,82.3c.5-.2,1-.3,1.7-.3v1.3c0,0-.2,0-.3,0-.7,0-1.3.2-1.8.7-.4.4-.6,1.1-.6,1.9v3.8h-1.4v-7.6h1.3v1.3c.2-.4.6-.8,1.1-1Z"/>
        <path class="cls-2" d="M78.6,82.1l-2.9,7.6h-1.3l-2.2-5.8-2.2,5.8h-1.3l-2.8-7.6h1.3l2.2,6.1,2.3-6.1h1.2l2.3,6.1,2.3-6.1h1.2Z"/>
        <path class="cls-2" d="M84.9,82.8c.6.5.8,1.3.8,2.3v4.6h-1.3v-1c-.2.4-.6.6-1,.8s-.9.3-1.5.3c-.9,0-1.5-.2-2.1-.6-.5-.4-.8-1-.8-1.6s.2-1.2.7-1.6c.5-.4,1.3-.6,2.3-.6h2.2v-.3c0-.6-.2-1.1-.5-1.4-.3-.3-.9-.5-1.5-.5s-.9,0-1.3.2c-.4.1-.8.3-1.1.6l-.6-1c.4-.3.9-.6,1.4-.7.5-.2,1.1-.3,1.7-.3,1.1,0,1.9.3,2.4.8ZM83.5,88.4c.4-.2.7-.6.8-1v-1.1h-2.1c-1.2,0-1.8.4-1.8,1.2s.1.7.4.9.7.3,1.2.3,1-.1,1.4-.4Z"/>
        <path class="cls-2" d="M90.7,82.3c.5-.2,1-.3,1.7-.3v1.3c0,0-.2,0-.3,0-.7,0-1.3.2-1.8.7-.4.4-.6,1.1-.6,1.9v3.8h-1.4v-7.6h1.3v1.3c.2-.4.6-.8,1.1-1Z"/>
        <path class="cls-2" d="M101.3,79v10.7h-1.3v-1.2c-.3.4-.7.7-1.2,1-.5.2-1,.3-1.6.3s-1.4-.2-2-.5c-.6-.3-1-.8-1.4-1.4-.3-.6-.5-1.3-.5-2s.2-1.4.5-2c.3-.6.8-1,1.4-1.4.6-.3,1.2-.5,2-.5s1.1.1,1.5.3c.5.2.8.5,1.2.9v-4.2h1.4ZM98.6,88.2c.4-.2.7-.5.9-1,.2-.4.3-.9.3-1.4s-.1-1-.3-1.4c-.2-.4-.5-.7-.9-.9s-.8-.3-1.3-.3-.9.1-1.3.3-.7.5-.9.9-.3.9-.3,1.4.1,1,.3,1.4.5.7.9,1,.8.3,1.3.3.9-.1,1.3-.3Z"/>
        <path class="cls-2" d="M115,80.6c.7.6,1.1,1.5,1.1,2.6s-.4,2-1.1,2.6c-.7.6-1.8.9-3.1.9h-2.5v3.1h-1.4v-10.1h3.9c1.3,0,2.3.3,3.1.9ZM113.9,84.8c.5-.4.7-.9.7-1.7s-.2-1.3-.7-1.7c-.5-.4-1.2-.6-2.1-.6h-2.4v4.5h2.4c.9,0,1.6-.2,2.1-.6Z"/>
        <path class="cls-2" d="M120.3,82.3c.5-.2,1-.3,1.7-.3v1.3c0,0-.2,0-.3,0-.7,0-1.3.2-1.8.7-.4.4-.6,1.1-.6,1.9v3.8h-1.4v-7.6h1.3v1.3c.2-.4.6-.8,1.1-1Z"/>
        <path class="cls-2" d="M124.8,89.3c-.6-.3-1.1-.8-1.4-1.4-.3-.6-.5-1.3-.5-2s.2-1.4.5-2c.3-.6.8-1.1,1.4-1.4.6-.3,1.3-.5,2-.5s1.4.2,2,.5c.6.3,1.1.8,1.4,1.4.3.6.5,1.3.5,2s-.2,1.4-.5,2c-.3.6-.8,1.1-1.4,1.4-.6.3-1.3.5-2,.5s-1.4-.2-2-.5ZM128.2,88.2c.4-.2.7-.5.9-1,.2-.4.3-.9.3-1.4s-.1-1-.3-1.4c-.2-.4-.5-.7-.9-.9s-.8-.3-1.3-.3-.9.1-1.3.3-.7.5-.9.9-.3.9-.3,1.4.1,1,.3,1.4.5.7.9,1,.8.3,1.3.3.9-.1,1.3-.3Z"/>
        <path class="cls-2" d="M134,89.3c-.6-.3-1.1-.8-1.4-1.4-.3-.6-.5-1.3-.5-2s.2-1.4.5-2c.3-.6.8-1.1,1.4-1.4s1.3-.5,2.1-.5,1.3.1,1.9.4c.5.3,1,.7,1.3,1.2l-1.1.7c-.2-.4-.5-.6-.9-.8-.4-.2-.7-.3-1.2-.3s-.9.1-1.3.3c-.4.2-.7.5-.9.9s-.3.9-.3,1.4.1,1,.3,1.4.5.7.9.9c.4.2.8.3,1.3.3s.8,0,1.2-.3c.4-.2.7-.5.9-.8l1.1.7c-.3.5-.7.9-1.3,1.2-.5.3-1.2.4-1.9.4s-1.5-.2-2.1-.5Z"/>
        <path class="cls-2" d="M147.7,86.3h-6.2c0,.7.4,1.2.9,1.6s1.1.6,1.9.6,1.6-.3,2.2-.9l.8.9c-.3.4-.8.7-1.3.9s-1.1.3-1.7.3-1.5-.2-2.1-.5-1.1-.8-1.4-1.4c-.3-.6-.5-1.3-.5-2s.2-1.4.5-2c.3-.6.8-1.1,1.4-1.4s1.2-.5,2-.5,1.4.2,2,.5c.6.3,1,.8,1.3,1.4.3.6.5,1.3.5,2s0,.2,0,.4ZM142.3,83.8c-.4.4-.7.9-.8,1.6h4.9c0-.6-.3-1.2-.8-1.6s-1-.6-1.7-.6-1.2.2-1.7.6Z"/>
        <path class="cls-2" d="M150.1,89.5c-.6-.2-1-.4-1.4-.6l.6-1.1c.3.2.7.4,1.2.6.5.1,1,.2,1.5.2,1.2,0,1.8-.3,1.8-1s0-.4-.2-.5c-.2-.1-.4-.2-.6-.3s-.6-.1-1-.2c-.6,0-1.1-.2-1.5-.3-.4-.1-.7-.3-1-.6-.3-.3-.4-.7-.4-1.3s.3-1.2.9-1.7c.6-.4,1.3-.6,2.3-.6s1,0,1.5.2.9.3,1.3.5l-.6,1.1c-.6-.4-1.4-.6-2.2-.6s-1,0-1.3.3c-.3.2-.5.4-.5.8s0,.4.3.6c.2.1.4.2.6.3.3,0,.6.1,1.1.2.6.1,1.1.2,1.5.3.4.1.7.3,1,.6s.4.7.4,1.2-.3,1.2-.9,1.6-1.4.6-2.4.6-1.2,0-1.8-.3Z"/>
        <path class="cls-2" d="M157.3,89.5c-.6-.2-1-.4-1.4-.6l.6-1.1c.3.2.7.4,1.2.6.5.1,1,.2,1.5.2,1.2,0,1.8-.3,1.8-1s0-.4-.2-.5c-.2-.1-.4-.2-.6-.3s-.6-.1-1-.2c-.6,0-1.1-.2-1.5-.3-.4-.1-.7-.3-1-.6-.3-.3-.4-.7-.4-1.3s.3-1.2.9-1.7c.6-.4,1.3-.6,2.3-.6s1,0,1.5.2.9.3,1.3.5l-.6,1.1c-.6-.4-1.4-.6-2.2-.6s-1,0-1.3.3c-.3.2-.5.4-.5.8s0,.4.3.6c.2.1.4.2.6.3.3,0,.6.1,1.1.2.6.1,1.1.2,1.5.3.4.1.7.3,1,.6s.4.7.4,1.2-.3,1.2-.9,1.6-1.4.6-2.4.6-1.2,0-1.8-.3Z"/>
        <path class="cls-2" d="M164.1,80.3c-.2-.2-.3-.4-.3-.6s0-.5.3-.6c.2-.2.4-.3.7-.3s.5,0,.7.3.3.4.3.6,0,.5-.3.7-.4.3-.7.3-.5,0-.7-.3ZM164.1,82.1h1.4v7.6h-1.4v-7.6Z"/>
        <path class="cls-2" d="M174.5,82.8c.6.6.9,1.4.9,2.5v4.4h-1.4v-4.2c0-.7-.2-1.3-.5-1.7-.4-.4-.9-.6-1.5-.6s-1.3.2-1.8.7c-.4.4-.6,1.1-.6,1.9v3.9h-1.4v-7.6h1.3v1.2c.3-.4.7-.7,1.1-.9.5-.2,1-.3,1.6-.3,1,0,1.7.3,2.3.8Z"/>
        <path class="cls-2" d="M185.3,82.1v6.6c0,1.3-.3,2.3-1,3-.7.6-1.7,1-3,1s-1.4,0-2.1-.3c-.7-.2-1.2-.5-1.6-.8l.7-1.1c.4.3.8.5,1.3.7.5.2,1.1.3,1.6.3.9,0,1.6-.2,2-.6.4-.4.6-1.1.6-1.9v-.6c-.3.4-.7.7-1.2.9-.5.2-1,.3-1.5.3s-1.4-.2-2-.5c-.6-.3-1.1-.7-1.4-1.3-.3-.6-.5-1.2-.5-1.9s.2-1.4.5-1.9c.3-.6.8-1,1.4-1.3.6-.3,1.3-.5,2-.5s1.1.1,1.6.3c.5.2.9.5,1.2.9v-1.2h1.3ZM182.6,87.9c.4-.2.7-.5.9-.9.2-.4.3-.8.3-1.3,0-.7-.2-1.3-.7-1.8-.5-.5-1.1-.7-1.9-.7s-1.4.2-1.9.7c-.5.5-.7,1.1-.7,1.8s.1.9.3,1.3c.2.4.5.7.9.9.4.2.9.3,1.4.3s.9-.1,1.3-.3Z"/>
      </g>
      <g class="cls-3">
        <g class="cls-3">
          <text class="cls-1" transform="translate(320.3 22.2)"><tspan x="0" y="0">TM</tspan></text>
        </g>
      </g>
    </g>
  </g>
</svg>